<svg xmlns="http://www.w3.org/2000/svg" xmlns:xlink="http://www.w3.org/1999/xlink" width="400" zoomAndPan="magnify" viewBox="0 0 300 112.499997" height="150" preserveAspectRatio="xMidYMid meet" version="1.0"><defs><g/><clipPath id="081120938a"><path d="M 6.652344 19.699219 L 61.90625 19.699219 L 61.90625 80.921875 L 6.652344 80.921875 Z M 6.652344 19.699219 " clip-rule="nonzero"/></clipPath></defs><g fill="#001f20" fill-opacity="1"><g transform="translate(77.208511, 62.656142)"><g><path d="M 5.859375 -14.390625 L 8.6875 -14.65625 C 8.6875 -15.207031 8.632812 -15.789062 8.53125 -16.40625 C 8.4375 -17.019531 8.25 -17.59375 7.96875 -18.125 C 7.6875 -18.644531 7.28125 -19.066406 6.75 -19.390625 C 6.226562 -19.722656 5.53125 -19.878906 4.65625 -19.859375 C 3.976562 -19.847656 3.394531 -19.703125 2.90625 -19.421875 C 2.425781 -19.148438 2.035156 -18.796875 1.734375 -18.359375 C 1.429688 -17.921875 1.210938 -17.425781 1.078125 -16.875 C 0.941406 -16.332031 0.875 -15.796875 0.875 -15.265625 C 0.875 -14.734375 0.957031 -14.207031 1.125 -13.6875 C 1.40625 -12.675781 1.878906 -11.660156 2.546875 -10.640625 C 2.859375 -10.140625 3.164062 -9.664062 3.46875 -9.21875 C 3.78125 -8.78125 4.078125 -8.351562 4.359375 -7.9375 C 4.503906 -7.738281 4.632812 -7.539062 4.75 -7.34375 C 4.863281 -7.15625 4.984375 -6.960938 5.109375 -6.765625 C 5.316406 -6.367188 5.492188 -5.988281 5.640625 -5.625 C 5.785156 -5.257812 5.859375 -4.914062 5.859375 -4.59375 C 5.859375 -3.96875 5.765625 -3.453125 5.578125 -3.046875 C 5.398438 -2.640625 5.097656 -2.4375 4.671875 -2.4375 C 4.367188 -2.4375 4.128906 -2.53125 3.953125 -2.71875 C 3.773438 -2.914062 3.644531 -3.175781 3.5625 -3.5 C 3.445312 -3.800781 3.375 -4.148438 3.34375 -4.546875 C 3.320312 -4.953125 3.3125 -5.363281 3.3125 -5.78125 L 0.484375 -5.5 C 0.484375 -4.769531 0.53125 -4.0625 0.625 -3.375 C 0.726562 -2.695312 0.921875 -2.085938 1.203125 -1.546875 C 1.503906 -1.015625 1.925781 -0.585938 2.46875 -0.265625 C 3.007812 0.0546875 3.742188 0.21875 4.671875 0.21875 C 5.460938 0.21875 6.113281 0.0820312 6.625 -0.1875 C 7.144531 -0.46875 7.554688 -0.832031 7.859375 -1.28125 C 8.160156 -1.75 8.375 -2.273438 8.5 -2.859375 C 8.625 -3.453125 8.6875 -4.078125 8.6875 -4.734375 C 8.6875 -5.265625 8.601562 -5.785156 8.4375 -6.296875 C 8.28125 -6.804688 8.078125 -7.3125 7.828125 -7.8125 C 7.578125 -8.3125 7.289062 -8.804688 6.96875 -9.296875 C 6.65625 -9.796875 6.328125 -10.296875 5.984375 -10.796875 C 5.703125 -11.210938 5.425781 -11.613281 5.15625 -12 C 4.894531 -12.394531 4.65625 -12.78125 4.4375 -13.15625 C 4.21875 -13.53125 4.039062 -13.890625 3.90625 -14.234375 C 3.78125 -14.578125 3.71875 -14.921875 3.71875 -15.265625 C 3.71875 -15.835938 3.785156 -16.300781 3.921875 -16.65625 C 4.066406 -17.007812 4.328125 -17.195312 4.703125 -17.21875 C 4.929688 -17.21875 5.117188 -17.128906 5.265625 -16.953125 C 5.421875 -16.785156 5.546875 -16.570312 5.640625 -16.3125 C 5.734375 -16.019531 5.789062 -15.703125 5.8125 -15.359375 C 5.84375 -15.023438 5.859375 -14.703125 5.859375 -14.390625 Z M 5.859375 -14.390625 "/></g></g></g><g fill="#001f20" fill-opacity="1"><g transform="translate(94.208808, 62.656142)"><g><path d="M 1.0625 -19.65625 L 1.0625 0 L 3.953125 0 L 3.953125 -19.65625 Z M 1.0625 -19.65625 "/></g></g></g><g fill="#001f20" fill-opacity="1"><g transform="translate(107.066949, 62.656142)"><g><path d="M 1.0625 -19.65625 L 1.0625 0 L 7.78125 0 L 7.78125 -2.671875 L 3.953125 -2.671875 L 3.953125 -19.65625 Z M 1.0625 -19.65625 "/></g></g></g><g fill="#001f20" fill-opacity="1"><g transform="translate(122.784518, 62.656142)"><g><path d="M 1.0625 -19.65625 L 1.0625 0 L 7.671875 0 L 7.671875 -2.96875 L 3.953125 -2.96875 L 3.953125 -8.375 L 6.625 -8.375 L 6.625 -11.515625 L 3.953125 -11.515625 L 3.953125 -16.6875 L 7.671875 -16.6875 L 7.671875 -19.65625 Z M 1.0625 -19.65625 "/></g></g></g><g fill="#001f20" fill-opacity="1"><g transform="translate(138.822763, 62.656142)"><g><path d="M 4.109375 -10.234375 L 6.921875 0 L 9.484375 0 L 9.484375 -19.65625 L 6.84375 -19.65625 L 6.84375 -8.5 L 6.6875 -8.5 L 6.4375 -9.40625 L 3.640625 -19.65625 L 1.0625 -19.65625 L 1.0625 0 L 3.71875 0 L 3.71875 -11.140625 L 3.875 -11.140625 Z M 4.109375 -10.234375 "/></g></g></g><g fill="#001f20" fill-opacity="1"><g transform="translate(157.212693, 62.656142)"><g><path d="M 0.046875 -16.6875 L 2.78125 -16.6875 L 2.78125 0 L 5.671875 0 L 5.671875 -16.6875 L 8.390625 -16.6875 L 8.390625 -19.65625 L 0.046875 -19.65625 Z M 0.046875 -16.6875 "/></g></g></g><g fill="#3b82f6" fill-opacity="1"><g transform="translate(173.500295, 62.656142)"><g><path d="M 5.21875 0 L 6.546875 -9.296875 L 6.703125 -10.453125 L 6.8125 -10.453125 L 6.984375 -9.296875 L 8.3125 0 L 10.5625 0 L 13.203125 -19.65625 L 10.53125 -19.65625 L 9.390625 -9.4375 L 9.328125 -8.796875 L 9.109375 -8.796875 L 9.03125 -9.4375 L 7.8125 -19.65625 L 5.71875 -19.65625 L 4.484375 -9.4375 L 4.40625 -8.796875 L 4.203125 -8.796875 L 4.140625 -9.4375 L 3 -19.65625 L 0.328125 -19.65625 L 2.96875 0 Z M 5.21875 0 "/></g></g></g><g fill="#3b82f6" fill-opacity="1"><g transform="translate(194.856538, 62.656142)"><g><path d="M 1.0625 -19.65625 L 1.0625 0 L 3.953125 0 L 3.953125 -19.65625 Z M 1.0625 -19.65625 "/></g></g></g><g fill="#3b82f6" fill-opacity="1"><g transform="translate(207.714679, 62.656142)"><g><path d="M 0.046875 -16.6875 L 2.78125 -16.6875 L 2.78125 0 L 5.671875 0 L 5.671875 -16.6875 L 8.390625 -16.6875 L 8.390625 -19.65625 L 0.046875 -19.65625 Z M 0.046875 -16.6875 "/></g></g></g><g fill="#3b82f6" fill-opacity="1"><g transform="translate(223.993441, 62.656142)"><g><path d="M 4.109375 -10.234375 L 6.921875 0 L 9.484375 0 L 9.484375 -19.65625 L 6.84375 -19.65625 L 6.84375 -8.5 L 6.6875 -8.5 L 6.4375 -9.40625 L 3.640625 -19.65625 L 1.0625 -19.65625 L 1.0625 0 L 3.71875 0 L 3.71875 -11.140625 L 3.875 -11.140625 Z M 4.109375 -10.234375 "/></g></g></g><g fill="#3b82f6" fill-opacity="1"><g transform="translate(242.38337, 62.656142)"><g><path d="M 1.0625 -19.65625 L 1.0625 0 L 7.671875 0 L 7.671875 -2.96875 L 3.953125 -2.96875 L 3.953125 -8.375 L 6.625 -8.375 L 6.625 -11.515625 L 3.953125 -11.515625 L 3.953125 -16.6875 L 7.671875 -16.6875 L 7.671875 -19.65625 Z M 1.0625 -19.65625 "/></g></g></g><g fill="#3b82f6" fill-opacity="1"><g transform="translate(258.421621, 62.656142)"><g><path d="M 5.859375 -14.390625 L 8.6875 -14.65625 C 8.6875 -15.207031 8.632812 -15.789062 8.53125 -16.40625 C 8.4375 -17.019531 8.25 -17.59375 7.96875 -18.125 C 7.6875 -18.644531 7.28125 -19.066406 6.75 -19.390625 C 6.226562 -19.722656 5.53125 -19.878906 4.65625 -19.859375 C 3.976562 -19.847656 3.394531 -19.703125 2.90625 -19.421875 C 2.425781 -19.148438 2.035156 -18.796875 1.734375 -18.359375 C 1.429688 -17.921875 1.210938 -17.425781 1.078125 -16.875 C 0.941406 -16.332031 0.875 -15.796875 0.875 -15.265625 C 0.875 -14.734375 0.957031 -14.207031 1.125 -13.6875 C 1.40625 -12.675781 1.878906 -11.660156 2.546875 -10.640625 C 2.859375 -10.140625 3.164062 -9.664062 3.46875 -9.21875 C 3.78125 -8.78125 4.078125 -8.351562 4.359375 -7.9375 C 4.503906 -7.738281 4.632812 -7.539062 4.75 -7.34375 C 4.863281 -7.15625 4.984375 -6.960938 5.109375 -6.765625 C 5.316406 -6.367188 5.492188 -5.988281 5.640625 -5.625 C 5.785156 -5.257812 5.859375 -4.914062 5.859375 -4.59375 C 5.859375 -3.96875 5.765625 -3.453125 5.578125 -3.046875 C 5.398438 -2.640625 5.097656 -2.4375 4.671875 -2.4375 C 4.367188 -2.4375 4.128906 -2.53125 3.953125 -2.71875 C 3.773438 -2.914062 3.644531 -3.175781 3.5625 -3.5 C 3.445312 -3.800781 3.375 -4.148438 3.34375 -4.546875 C 3.320312 -4.953125 3.3125 -5.363281 3.3125 -5.78125 L 0.484375 -5.5 C 0.484375 -4.769531 0.53125 -4.0625 0.625 -3.375 C 0.726562 -2.695312 0.921875 -2.085938 1.203125 -1.546875 C 1.503906 -1.015625 1.925781 -0.585938 2.46875 -0.265625 C 3.007812 0.0546875 3.742188 0.21875 4.671875 0.21875 C 5.460938 0.21875 6.113281 0.0820312 6.625 -0.1875 C 7.144531 -0.46875 7.554688 -0.832031 7.859375 -1.28125 C 8.160156 -1.75 8.375 -2.273438 8.5 -2.859375 C 8.625 -3.453125 8.6875 -4.078125 8.6875 -4.734375 C 8.6875 -5.265625 8.601562 -5.785156 8.4375 -6.296875 C 8.28125 -6.804688 8.078125 -7.3125 7.828125 -7.8125 C 7.578125 -8.3125 7.289062 -8.804688 6.96875 -9.296875 C 6.65625 -9.796875 6.328125 -10.296875 5.984375 -10.796875 C 5.703125 -11.210938 5.425781 -11.613281 5.15625 -12 C 4.894531 -12.394531 4.65625 -12.78125 4.4375 -13.15625 C 4.21875 -13.53125 4.039062 -13.890625 3.90625 -14.234375 C 3.78125 -14.578125 3.71875 -14.921875 3.71875 -15.265625 C 3.71875 -15.835938 3.785156 -16.300781 3.921875 -16.65625 C 4.066406 -17.007812 4.328125 -17.195312 4.703125 -17.21875 C 4.929688 -17.21875 5.117188 -17.128906 5.265625 -16.953125 C 5.421875 -16.785156 5.546875 -16.570312 5.640625 -16.3125 C 5.734375 -16.019531 5.789062 -15.703125 5.8125 -15.359375 C 5.84375 -15.023438 5.859375 -14.703125 5.859375 -14.390625 Z M 5.859375 -14.390625 "/></g></g></g><g fill="#3b82f6" fill-opacity="1"><g transform="translate(275.421913, 62.656142)"><g><path d="M 5.859375 -14.390625 L 8.6875 -14.65625 C 8.6875 -15.207031 8.632812 -15.789062 8.53125 -16.40625 C 8.4375 -17.019531 8.25 -17.59375 7.96875 -18.125 C 7.6875 -18.644531 7.28125 -19.066406 6.75 -19.390625 C 6.226562 -19.722656 5.53125 -19.878906 4.65625 -19.859375 C 3.976562 -19.847656 3.394531 -19.703125 2.90625 -19.421875 C 2.425781 -19.148438 2.035156 -18.796875 1.734375 -18.359375 C 1.429688 -17.921875 1.210938 -17.425781 1.078125 -16.875 C 0.941406 -16.332031 0.875 -15.796875 0.875 -15.265625 C 0.875 -14.734375 0.957031 -14.207031 1.125 -13.6875 C 1.40625 -12.675781 1.878906 -11.660156 2.546875 -10.640625 C 2.859375 -10.140625 3.164062 -9.664062 3.46875 -9.21875 C 3.78125 -8.78125 4.078125 -8.351562 4.359375 -7.9375 C 4.503906 -7.738281 4.632812 -7.539062 4.75 -7.34375 C 4.863281 -7.15625 4.984375 -6.960938 5.109375 -6.765625 C 5.316406 -6.367188 5.492188 -5.988281 5.640625 -5.625 C 5.785156 -5.257812 5.859375 -4.914062 5.859375 -4.59375 C 5.859375 -3.96875 5.765625 -3.453125 5.578125 -3.046875 C 5.398438 -2.640625 5.097656 -2.4375 4.671875 -2.4375 C 4.367188 -2.4375 4.128906 -2.53125 3.953125 -2.71875 C 3.773438 -2.914062 3.644531 -3.175781 3.5625 -3.5 C 3.445312 -3.800781 3.375 -4.148438 3.34375 -4.546875 C 3.320312 -4.953125 3.3125 -5.363281 3.3125 -5.78125 L 0.484375 -5.5 C 0.484375 -4.769531 0.53125 -4.0625 0.625 -3.375 C 0.726562 -2.695312 0.921875 -2.085938 1.203125 -1.546875 C 1.503906 -1.015625 1.925781 -0.585938 2.46875 -0.265625 C 3.007812 0.0546875 3.742188 0.21875 4.671875 0.21875 C 5.460938 0.21875 6.113281 0.0820312 6.625 -0.1875 C 7.144531 -0.46875 7.554688 -0.832031 7.859375 -1.28125 C 8.160156 -1.75 8.375 -2.273438 8.5 -2.859375 C 8.625 -3.453125 8.6875 -4.078125 8.6875 -4.734375 C 8.6875 -5.265625 8.601562 -5.785156 8.4375 -6.296875 C 8.28125 -6.804688 8.078125 -7.3125 7.828125 -7.8125 C 7.578125 -8.3125 7.289062 -8.804688 6.96875 -9.296875 C 6.65625 -9.796875 6.328125 -10.296875 5.984375 -10.796875 C 5.703125 -11.210938 5.425781 -11.613281 5.15625 -12 C 4.894531 -12.394531 4.65625 -12.78125 4.4375 -13.15625 C 4.21875 -13.53125 4.039062 -13.890625 3.90625 -14.234375 C 3.78125 -14.578125 3.71875 -14.921875 3.71875 -15.265625 C 3.71875 -15.835938 3.785156 -16.300781 3.921875 -16.65625 C 4.066406 -17.007812 4.328125 -17.195312 4.703125 -17.21875 C 4.929688 -17.21875 5.117188 -17.128906 5.265625 -16.953125 C 5.421875 -16.785156 5.546875 -16.570312 5.640625 -16.3125 C 5.734375 -16.019531 5.789062 -15.703125 5.8125 -15.359375 C 5.84375 -15.023438 5.859375 -14.703125 5.859375 -14.390625 Z M 5.859375 -14.390625 "/></g></g></g><g clip-path="url(#081120938a)"><path fill="#3b82f6" d="M 37.300781 32.6875 C 39.097656 32.6875 40.714844 31.964844 41.890625 30.789062 L 42.039062 30.640625 C 43.226562 29.378906 44.988281 29.023438 46.570312 29.734375 C 49.078125 30.863281 51.332031 32.441406 53.253906 34.351562 C 53.953125 35.050781 54.613281 35.808594 55.214844 36.59375 C 54.945312 37.082031 54.785156 37.644531 54.785156 38.246094 C 54.785156 39.1875 55.164062 40.035156 55.777344 40.644531 C 56.390625 41.257812 57.246094 41.636719 58.175781 41.636719 C 59.121094 41.636719 59.964844 41.257812 60.578125 40.644531 C 61.191406 40.035156 61.570312 39.175781 61.570312 38.246094 C 61.570312 37.304688 61.191406 36.457031 60.578125 35.847656 C 59.964844 35.234375 59.109375 34.855469 58.175781 34.855469 C 58.054688 34.855469 57.921875 34.867188 57.796875 34.878906 C 57.074219 33.921875 56.292969 33.015625 55.433594 32.171875 C 52.726562 29.464844 49.410156 27.347656 45.699219 26.0625 C 44.574219 25.671875 43.753906 24.898438 43.3125 23.785156 C 42.980469 22.964844 42.492188 22.214844 41.867188 21.605469 C 40.714844 20.417969 39.097656 19.695312 37.300781 19.695312 C 35.5 19.695312 33.882812 20.417969 32.707031 21.59375 C 32.09375 22.203125 31.59375 22.953125 31.261719 23.773438 C 30.820312 24.875 30 25.65625 28.875 26.050781 C 25.175781 27.335938 21.859375 29.441406 19.140625 32.160156 C 16.433594 34.867188 14.3125 38.183594 13.027344 41.894531 C 12.636719 43.023438 11.867188 43.84375 10.75 44.28125 C 9.929688 44.613281 9.183594 45.101562 8.570312 45.726562 C 7.40625 46.890625 6.683594 48.507812 6.683594 50.308594 C 6.683594 52.109375 7.40625 53.722656 8.582031 54.898438 C 9.195312 55.511719 9.941406 56.015625 10.761719 56.34375 C 11.867188 56.785156 12.648438 57.605469 13.039062 58.734375 C 14.328125 62.429688 16.433594 65.75 19.152344 68.46875 C 21.859375 71.175781 25.175781 73.292969 28.886719 74.578125 C 30.011719 74.96875 30.832031 75.742188 31.273438 76.855469 C 31.605469 77.675781 32.09375 78.421875 32.71875 79.035156 C 33.894531 80.210938 35.523438 80.933594 37.3125 80.933594 C 39.113281 80.933594 40.726562 80.210938 41.902344 79.035156 C 42.515625 78.421875 43.019531 77.675781 43.347656 76.855469 C 43.789062 75.753906 44.609375 74.96875 45.734375 74.578125 C 49.433594 73.292969 52.753906 71.1875 55.472656 68.46875 C 56.316406 67.621094 57.113281 66.714844 57.835938 65.761719 C 57.957031 65.773438 58.09375 65.785156 58.214844 65.785156 C 59.15625 65.785156 60.003906 65.40625 60.613281 64.792969 C 61.226562 64.183594 61.605469 63.324219 61.605469 62.394531 C 61.605469 61.453125 61.226562 60.605469 60.613281 59.992188 C 60.003906 59.382812 59.144531 59.003906 58.214844 59.003906 C 57.269531 59.003906 56.425781 59.382812 55.8125 59.992188 C 55.203125 60.605469 54.824219 61.464844 54.824219 62.394531 C 54.824219 62.992188 54.980469 63.558594 55.25 64.046875 C 54.652344 64.84375 53.988281 65.589844 53.292969 66.289062 C 51.367188 68.210938 49.117188 69.777344 46.605469 70.90625 C 45.027344 71.613281 43.261719 71.261719 42.074219 70 L 41.929688 69.851562 C 40.753906 68.675781 39.125 67.953125 37.335938 67.953125 C 35.535156 67.953125 33.917969 68.675781 32.742188 69.851562 L 32.597656 70.011719 C 31.410156 71.273438 29.644531 71.628906 28.066406 70.917969 C 25.554688 69.789062 23.300781 68.210938 21.378906 66.300781 C 19.457031 64.378906 17.890625 62.125 16.761719 59.613281 C 16.054688 58.035156 16.410156 56.269531 17.667969 55.082031 L 17.816406 54.9375 C 17.964844 54.789062 18.109375 54.628906 18.234375 54.472656 C 19.605469 52.804688 21.476562 51.925781 23.632812 51.925781 C 25.027344 51.925781 26.425781 51.925781 27.808594 51.925781 C 29.867188 51.925781 31.628906 52.707031 33.011719 54.238281 C 34.078125 55.414062 35.621094 56.160156 37.324219 56.160156 C 40.53125 56.160156 43.140625 53.566406 43.140625 50.34375 C 43.140625 47.125 40.542969 44.527344 37.324219 44.527344 C 35.609375 44.527344 34.066406 45.261719 33.011719 46.449219 C 31.640625 47.980469 29.867188 48.765625 27.808594 48.765625 C 26.414062 48.765625 25.015625 48.765625 23.632812 48.765625 C 21.464844 48.765625 19.605469 47.882812 18.234375 46.21875 C 18.097656 46.058594 17.964844 45.898438 17.816406 45.753906 L 17.667969 45.605469 C 16.410156 44.417969 16.054688 42.65625 16.761719 41.074219 C 17.890625 38.5625 19.46875 36.3125 21.378906 34.390625 C 23.300781 32.464844 25.554688 30.898438 28.066406 29.773438 C 29.644531 29.0625 31.410156 29.417969 32.597656 30.679688 L 32.742188 30.824219 C 33.882812 31.964844 35.5 32.6875 37.300781 32.6875 Z M 25.507812 60.054688 C 25.210938 59.699219 25.089844 59.273438 25.175781 58.804688 C 25.261719 58.339844 25.519531 57.984375 25.921875 57.753906 L 25.949219 57.742188 C 26.597656 57.359375 27.417969 57.507812 27.894531 58.097656 C 28.140625 58.390625 28.398438 58.671875 28.667969 58.953125 C 30.871094 61.15625 33.929688 62.527344 37.300781 62.527344 C 40.667969 62.527344 43.714844 61.15625 45.933594 58.953125 L 46.164062 58.707031 C 45.945312 58.253906 45.808594 57.742188 45.808594 57.203125 C 45.808594 56.257812 46.1875 55.414062 46.800781 54.800781 C 47.414062 54.191406 48.269531 53.808594 49.203125 53.808594 C 50.144531 53.808594 50.988281 54.191406 51.601562 54.800781 C 52.214844 55.414062 52.59375 56.269531 52.59375 57.203125 C 52.59375 58.144531 52.214844 58.988281 51.601562 59.601562 C 50.988281 60.214844 50.132812 60.59375 49.203125 60.59375 C 49.019531 60.59375 48.847656 60.582031 48.664062 60.558594 C 48.480469 60.753906 48.296875 60.949219 48.097656 61.144531 C 45.355469 63.898438 41.523438 65.613281 37.300781 65.613281 C 33.074219 65.613281 29.242188 63.898438 26.472656 61.132812 C 26.132812 60.789062 25.8125 60.433594 25.507812 60.054688 Z M 27.894531 42.53125 C 27.417969 43.109375 26.597656 43.253906 25.949219 42.886719 L 25.921875 42.875 C 25.519531 42.640625 25.261719 42.273438 25.175781 41.820312 C 25.089844 41.355469 25.199219 40.929688 25.507812 40.574219 C 25.8125 40.207031 26.144531 39.839844 26.488281 39.507812 C 29.242188 36.714844 33.074219 35 37.300781 35 C 41.523438 35 45.355469 36.714844 48.125 39.484375 C 48.320312 39.679688 48.503906 39.875 48.6875 40.070312 C 48.859375 40.046875 49.042969 40.035156 49.226562 40.035156 C 50.167969 40.035156 51.015625 40.414062 51.625 41.027344 C 52.238281 41.636719 52.617188 42.496094 52.617188 43.425781 C 52.617188 44.367188 52.238281 45.214844 51.625 45.824219 C 51.015625 46.4375 50.15625 46.816406 49.226562 46.816406 C 48.285156 46.816406 47.4375 46.4375 46.824219 45.824219 C 46.214844 45.214844 45.835938 44.355469 45.835938 43.425781 C 45.835938 42.886719 45.957031 42.371094 46.1875 41.917969 L 45.957031 41.675781 C 43.753906 39.46875 40.691406 38.097656 37.324219 38.097656 C 33.957031 38.097656 30.90625 39.46875 28.691406 41.675781 C 28.398438 41.945312 28.140625 42.238281 27.894531 42.53125 Z M 33.90625 74.417969 C 33.90625 73.476562 34.285156 72.632812 34.898438 72.019531 C 35.511719 71.40625 36.367188 71.027344 37.300781 71.027344 C 38.242188 71.027344 39.085938 71.40625 39.699219 72.019531 C 40.3125 72.632812 40.691406 73.488281 40.691406 74.417969 C 40.691406 75.363281 40.3125 76.207031 39.699219 76.820312 C 39.085938 77.429688 38.230469 77.8125 37.300781 77.8125 C 36.355469 77.8125 35.511719 77.429688 34.898438 76.820312 C 34.285156 76.207031 33.90625 75.363281 33.90625 74.417969 Z M 39.699219 23.785156 C 40.3125 24.394531 40.691406 25.253906 40.691406 26.183594 C 40.691406 27.128906 40.3125 27.972656 39.699219 28.585938 C 39.085938 29.195312 38.230469 29.578125 37.300781 29.578125 C 36.355469 29.578125 35.511719 29.195312 34.898438 28.585938 C 34.285156 27.972656 33.90625 27.113281 33.90625 26.183594 C 33.90625 25.242188 34.285156 24.394531 34.898438 23.785156 C 35.511719 23.171875 36.367188 22.792969 37.300781 22.792969 C 38.242188 22.792969 39.085938 23.171875 39.699219 23.785156 Z M 10.777344 47.90625 C 11.386719 47.296875 12.246094 46.914062 13.175781 46.914062 C 14.117188 46.914062 14.964844 47.296875 15.574219 47.90625 C 16.1875 48.519531 16.566406 49.378906 16.566406 50.308594 C 16.566406 51.25 16.1875 52.09375 15.574219 52.707031 C 14.964844 53.320312 14.105469 53.699219 13.175781 53.699219 C 12.234375 53.699219 11.386719 53.320312 10.777344 52.707031 C 10.164062 52.09375 9.785156 51.238281 9.785156 50.308594 C 9.785156 49.363281 10.164062 48.519531 10.777344 47.90625 Z M 10.777344 47.90625 " fill-opacity="1" fill-rule="evenodd"/></g></svg>