<svg xmlns="http://www.w3.org/2000/svg" xmlns:xlink="http://www.w3.org/1999/xlink" width="500" zoomAndPan="magnify" viewBox="0 0 375 374.999991" height="500" preserveAspectRatio="xMidYMid meet" version="1.0"><defs><g/><clipPath id="738d796926"><path d="M 13.429688 142.785156 L 78.679688 142.785156 L 78.679688 215.527344 L 13.429688 215.527344 Z M 13.429688 142.785156 " clip-rule="nonzero"/></clipPath></defs><g fill="#001f20" fill-opacity="1"><g transform="translate(97.185467, 193.777473)"><g><path d="M 6.953125 -17.078125 L 10.3125 -17.390625 C 10.3125 -18.046875 10.253906 -18.738281 10.140625 -19.46875 C 10.023438 -20.195312 9.796875 -20.878906 9.453125 -21.515625 C 9.117188 -22.128906 8.640625 -22.628906 8.015625 -23.015625 C 7.390625 -23.410156 6.554688 -23.597656 5.515625 -23.578125 C 4.710938 -23.554688 4.023438 -23.378906 3.453125 -23.046875 C 2.890625 -22.722656 2.425781 -22.304688 2.0625 -21.796875 C 1.695312 -21.273438 1.4375 -20.691406 1.28125 -20.046875 C 1.125 -19.398438 1.046875 -18.757812 1.046875 -18.125 C 1.046875 -17.488281 1.140625 -16.863281 1.328125 -16.25 C 1.671875 -15.039062 2.234375 -13.832031 3.015625 -12.625 C 3.398438 -12.03125 3.769531 -11.46875 4.125 -10.9375 C 4.488281 -10.414062 4.835938 -9.910156 5.171875 -9.421875 C 5.335938 -9.191406 5.488281 -8.957031 5.625 -8.71875 C 5.769531 -8.488281 5.914062 -8.257812 6.0625 -8.03125 C 6.3125 -7.5625 6.519531 -7.109375 6.6875 -6.671875 C 6.863281 -6.242188 6.953125 -5.835938 6.953125 -5.453125 C 6.953125 -4.710938 6.84375 -4.097656 6.625 -3.609375 C 6.414062 -3.128906 6.054688 -2.890625 5.546875 -2.890625 C 5.191406 -2.890625 4.90625 -3.003906 4.6875 -3.234375 C 4.476562 -3.472656 4.320312 -3.78125 4.21875 -4.15625 C 4.09375 -4.519531 4.015625 -4.9375 3.984375 -5.40625 C 3.953125 -5.882812 3.9375 -6.367188 3.9375 -6.859375 L 0.578125 -6.53125 C 0.578125 -5.664062 0.632812 -4.828125 0.75 -4.015625 C 0.863281 -3.203125 1.085938 -2.476562 1.421875 -1.84375 C 1.785156 -1.207031 2.289062 -0.695312 2.9375 -0.3125 C 3.582031 0.0625 4.453125 0.25 5.546875 0.25 C 6.484375 0.25 7.257812 0.0859375 7.875 -0.234375 C 8.488281 -0.566406 8.972656 -0.992188 9.328125 -1.515625 C 9.691406 -2.066406 9.945312 -2.691406 10.09375 -3.390625 C 10.238281 -4.085938 10.3125 -4.828125 10.3125 -5.609375 C 10.3125 -6.242188 10.21875 -6.863281 10.03125 -7.46875 C 9.84375 -8.070312 9.597656 -8.671875 9.296875 -9.265625 C 9.003906 -9.859375 8.664062 -10.453125 8.28125 -11.046875 C 7.90625 -11.640625 7.515625 -12.234375 7.109375 -12.828125 C 6.765625 -13.304688 6.4375 -13.78125 6.125 -14.25 C 5.8125 -14.71875 5.523438 -15.171875 5.265625 -15.609375 C 5.015625 -16.054688 4.804688 -16.484375 4.640625 -16.890625 C 4.484375 -17.304688 4.40625 -17.71875 4.40625 -18.125 C 4.40625 -18.800781 4.488281 -19.347656 4.65625 -19.765625 C 4.832031 -20.191406 5.140625 -20.414062 5.578125 -20.4375 C 5.859375 -20.4375 6.085938 -20.332031 6.265625 -20.125 C 6.441406 -19.925781 6.585938 -19.671875 6.703125 -19.359375 C 6.804688 -19.015625 6.875 -18.640625 6.90625 -18.234375 C 6.9375 -17.835938 6.953125 -17.453125 6.953125 -17.078125 Z M 6.953125 -17.078125 "/></g></g></g><g fill="#001f20" fill-opacity="1"><g transform="translate(117.365937, 193.777473)"><g><path d="M 1.265625 -23.328125 L 1.265625 0 L 4.703125 0 L 4.703125 -23.328125 Z M 1.265625 -23.328125 "/></g></g></g><g fill="#001f20" fill-opacity="1"><g transform="translate(132.629396, 193.777473)"><g><path d="M 1.265625 -23.328125 L 1.265625 0 L 9.234375 0 L 9.234375 -3.171875 L 4.703125 -3.171875 L 4.703125 -23.328125 Z M 1.265625 -23.328125 "/></g></g></g><g fill="#001f20" fill-opacity="1"><g transform="translate(151.287184, 193.777473)"><g><path d="M 1.265625 -23.328125 L 1.265625 0 L 9.109375 0 L 9.109375 -3.515625 L 4.703125 -3.515625 L 4.703125 -9.9375 L 7.875 -9.9375 L 7.875 -13.671875 L 4.703125 -13.671875 L 4.703125 -19.796875 L 9.109375 -19.796875 L 9.109375 -23.328125 Z M 1.265625 -23.328125 "/></g></g></g><g fill="#001f20" fill-opacity="1"><g transform="translate(170.325637, 193.777473)"><g><path d="M 4.890625 -12.15625 L 8.21875 0 L 11.265625 0 L 11.265625 -23.328125 L 8.125 -23.328125 L 8.125 -10.09375 L 7.9375 -10.09375 L 7.640625 -11.171875 L 4.3125 -23.328125 L 1.265625 -23.328125 L 1.265625 0 L 4.40625 0 L 4.40625 -13.234375 L 4.59375 -13.234375 Z M 4.890625 -12.15625 "/></g></g></g><g fill="#001f20" fill-opacity="1"><g transform="translate(192.155692, 193.777473)"><g><path d="M 0.0625 -19.796875 L 3.296875 -19.796875 L 3.296875 0 L 6.734375 0 L 6.734375 -19.796875 L 9.96875 -19.796875 L 9.96875 -23.328125 L 0.0625 -23.328125 Z M 0.0625 -19.796875 "/></g></g></g><g fill="#5271ff" fill-opacity="1"><g transform="translate(211.490147, 193.777473)"><g><path d="M 6.1875 0 L 7.78125 -11.046875 L 7.96875 -12.40625 L 8.09375 -12.40625 L 8.28125 -11.046875 L 9.875 0 L 12.53125 0 L 15.671875 -23.328125 L 12.5 -23.328125 L 11.140625 -11.203125 L 11.078125 -10.4375 L 10.828125 -10.4375 L 10.71875 -11.203125 L 9.265625 -23.328125 L 6.796875 -23.328125 L 5.328125 -11.203125 L 5.234375 -10.4375 L 4.984375 -10.4375 L 4.921875 -11.203125 L 3.546875 -23.328125 L 0.375 -23.328125 L 3.515625 0 Z M 6.1875 0 "/></g></g></g><g fill="#5271ff" fill-opacity="1"><g transform="translate(236.841412, 193.777473)"><g><path d="M 1.265625 -23.328125 L 1.265625 0 L 4.703125 0 L 4.703125 -23.328125 Z M 1.265625 -23.328125 "/></g></g></g><g fill="#5271ff" fill-opacity="1"><g transform="translate(252.104871, 193.777473)"><g><path d="M 0.0625 -19.796875 L 3.296875 -19.796875 L 3.296875 0 L 6.734375 0 L 6.734375 -19.796875 L 9.96875 -19.796875 L 9.96875 -23.328125 L 0.0625 -23.328125 Z M 0.0625 -19.796875 "/></g></g></g><g fill="#5271ff" fill-opacity="1"><g transform="translate(271.428832, 193.777473)"><g><path d="M 4.890625 -12.15625 L 8.21875 0 L 11.265625 0 L 11.265625 -23.328125 L 8.125 -23.328125 L 8.125 -10.09375 L 7.9375 -10.09375 L 7.640625 -11.171875 L 4.3125 -23.328125 L 1.265625 -23.328125 L 1.265625 0 L 4.40625 0 L 4.40625 -13.234375 L 4.59375 -13.234375 Z M 4.890625 -12.15625 "/></g></g></g><g fill="#5271ff" fill-opacity="1"><g transform="translate(293.258887, 193.777473)"><g><path d="M 1.265625 -23.328125 L 1.265625 0 L 9.109375 0 L 9.109375 -3.515625 L 4.703125 -3.515625 L 4.703125 -9.9375 L 7.875 -9.9375 L 7.875 -13.671875 L 4.703125 -13.671875 L 4.703125 -19.796875 L 9.109375 -19.796875 L 9.109375 -23.328125 Z M 1.265625 -23.328125 "/></g></g></g><g fill="#5271ff" fill-opacity="1"><g transform="translate(312.297346, 193.777473)"><g><path d="M 6.953125 -17.078125 L 10.3125 -17.390625 C 10.3125 -18.046875 10.253906 -18.738281 10.140625 -19.46875 C 10.023438 -20.195312 9.796875 -20.878906 9.453125 -21.515625 C 9.117188 -22.128906 8.640625 -22.628906 8.015625 -23.015625 C 7.390625 -23.410156 6.554688 -23.597656 5.515625 -23.578125 C 4.710938 -23.554688 4.023438 -23.378906 3.453125 -23.046875 C 2.890625 -22.722656 2.425781 -22.304688 2.0625 -21.796875 C 1.695312 -21.273438 1.4375 -20.691406 1.28125 -20.046875 C 1.125 -19.398438 1.046875 -18.757812 1.046875 -18.125 C 1.046875 -17.488281 1.140625 -16.863281 1.328125 -16.25 C 1.671875 -15.039062 2.234375 -13.832031 3.015625 -12.625 C 3.398438 -12.03125 3.769531 -11.46875 4.125 -10.9375 C 4.488281 -10.414062 4.835938 -9.910156 5.171875 -9.421875 C 5.335938 -9.191406 5.488281 -8.957031 5.625 -8.71875 C 5.769531 -8.488281 5.914062 -8.257812 6.0625 -8.03125 C 6.3125 -7.5625 6.519531 -7.109375 6.6875 -6.671875 C 6.863281 -6.242188 6.953125 -5.835938 6.953125 -5.453125 C 6.953125 -4.710938 6.84375 -4.097656 6.625 -3.609375 C 6.414062 -3.128906 6.054688 -2.890625 5.546875 -2.890625 C 5.191406 -2.890625 4.90625 -3.003906 4.6875 -3.234375 C 4.476562 -3.472656 4.320312 -3.78125 4.21875 -4.15625 C 4.09375 -4.519531 4.015625 -4.9375 3.984375 -5.40625 C 3.953125 -5.882812 3.9375 -6.367188 3.9375 -6.859375 L 0.578125 -6.53125 C 0.578125 -5.664062 0.632812 -4.828125 0.75 -4.015625 C 0.863281 -3.203125 1.085938 -2.476562 1.421875 -1.84375 C 1.785156 -1.207031 2.289062 -0.695312 2.9375 -0.3125 C 3.582031 0.0625 4.453125 0.25 5.546875 0.25 C 6.484375 0.25 7.257812 0.0859375 7.875 -0.234375 C 8.488281 -0.566406 8.972656 -0.992188 9.328125 -1.515625 C 9.691406 -2.066406 9.945312 -2.691406 10.09375 -3.390625 C 10.238281 -4.085938 10.3125 -4.828125 10.3125 -5.609375 C 10.3125 -6.242188 10.21875 -6.863281 10.03125 -7.46875 C 9.84375 -8.070312 9.597656 -8.671875 9.296875 -9.265625 C 9.003906 -9.859375 8.664062 -10.453125 8.28125 -11.046875 C 7.90625 -11.640625 7.515625 -12.234375 7.109375 -12.828125 C 6.765625 -13.304688 6.4375 -13.78125 6.125 -14.25 C 5.8125 -14.71875 5.523438 -15.171875 5.265625 -15.609375 C 5.015625 -16.054688 4.804688 -16.484375 4.640625 -16.890625 C 4.484375 -17.304688 4.40625 -17.71875 4.40625 -18.125 C 4.40625 -18.800781 4.488281 -19.347656 4.65625 -19.765625 C 4.832031 -20.191406 5.140625 -20.414062 5.578125 -20.4375 C 5.859375 -20.4375 6.085938 -20.332031 6.265625 -20.125 C 6.441406 -19.925781 6.585938 -19.671875 6.703125 -19.359375 C 6.804688 -19.015625 6.875 -18.640625 6.90625 -18.234375 C 6.9375 -17.835938 6.953125 -17.453125 6.953125 -17.078125 Z M 6.953125 -17.078125 "/></g></g></g><g fill="#5271ff" fill-opacity="1"><g transform="translate(332.477811, 193.777473)"><g><path d="M 6.953125 -17.078125 L 10.3125 -17.390625 C 10.3125 -18.046875 10.253906 -18.738281 10.140625 -19.46875 C 10.023438 -20.195312 9.796875 -20.878906 9.453125 -21.515625 C 9.117188 -22.128906 8.640625 -22.628906 8.015625 -23.015625 C 7.390625 -23.410156 6.554688 -23.597656 5.515625 -23.578125 C 4.710938 -23.554688 4.023438 -23.378906 3.453125 -23.046875 C 2.890625 -22.722656 2.425781 -22.304688 2.0625 -21.796875 C 1.695312 -21.273438 1.4375 -20.691406 1.28125 -20.046875 C 1.125 -19.398438 1.046875 -18.757812 1.046875 -18.125 C 1.046875 -17.488281 1.140625 -16.863281 1.328125 -16.25 C 1.671875 -15.039062 2.234375 -13.832031 3.015625 -12.625 C 3.398438 -12.03125 3.769531 -11.46875 4.125 -10.9375 C 4.488281 -10.414062 4.835938 -9.910156 5.171875 -9.421875 C 5.335938 -9.191406 5.488281 -8.957031 5.625 -8.71875 C 5.769531 -8.488281 5.914062 -8.257812 6.0625 -8.03125 C 6.3125 -7.5625 6.519531 -7.109375 6.6875 -6.671875 C 6.863281 -6.242188 6.953125 -5.835938 6.953125 -5.453125 C 6.953125 -4.710938 6.84375 -4.097656 6.625 -3.609375 C 6.414062 -3.128906 6.054688 -2.890625 5.546875 -2.890625 C 5.191406 -2.890625 4.90625 -3.003906 4.6875 -3.234375 C 4.476562 -3.472656 4.320312 -3.78125 4.21875 -4.15625 C 4.09375 -4.519531 4.015625 -4.9375 3.984375 -5.40625 C 3.953125 -5.882812 3.9375 -6.367188 3.9375 -6.859375 L 0.578125 -6.53125 C 0.578125 -5.664062 0.632812 -4.828125 0.75 -4.015625 C 0.863281 -3.203125 1.085938 -2.476562 1.421875 -1.84375 C 1.785156 -1.207031 2.289062 -0.695312 2.9375 -0.3125 C 3.582031 0.0625 4.453125 0.25 5.546875 0.25 C 6.484375 0.25 7.257812 0.0859375 7.875 -0.234375 C 8.488281 -0.566406 8.972656 -0.992188 9.328125 -1.515625 C 9.691406 -2.066406 9.945312 -2.691406 10.09375 -3.390625 C 10.238281 -4.085938 10.3125 -4.828125 10.3125 -5.609375 C 10.3125 -6.242188 10.21875 -6.863281 10.03125 -7.46875 C 9.84375 -8.070312 9.597656 -8.671875 9.296875 -9.265625 C 9.003906 -9.859375 8.664062 -10.453125 8.28125 -11.046875 C 7.90625 -11.640625 7.515625 -12.234375 7.109375 -12.828125 C 6.765625 -13.304688 6.4375 -13.78125 6.125 -14.25 C 5.8125 -14.71875 5.523438 -15.171875 5.265625 -15.609375 C 5.015625 -16.054688 4.804688 -16.484375 4.640625 -16.890625 C 4.484375 -17.304688 4.40625 -17.71875 4.40625 -18.125 C 4.40625 -18.800781 4.488281 -19.347656 4.65625 -19.765625 C 4.832031 -20.191406 5.140625 -20.414062 5.578125 -20.4375 C 5.859375 -20.4375 6.085938 -20.332031 6.265625 -20.125 C 6.441406 -19.925781 6.585938 -19.671875 6.703125 -19.359375 C 6.804688 -19.015625 6.875 -18.640625 6.90625 -18.234375 C 6.9375 -17.835938 6.953125 -17.453125 6.953125 -17.078125 Z M 6.953125 -17.078125 "/></g></g></g><g clip-path="url(#738d796926)"><path fill="#5271ff" d="M 49.816406 158.199219 C 51.953125 158.199219 53.871094 157.34375 55.265625 155.949219 L 55.441406 155.773438 C 56.851562 154.277344 58.945312 153.855469 60.820312 154.699219 C 63.800781 156.035156 66.472656 157.910156 68.757812 160.175781 C 69.585938 161.007812 70.371094 161.90625 71.082031 162.835938 C 70.761719 163.417969 70.574219 164.085938 70.574219 164.800781 C 70.574219 165.917969 71.023438 166.921875 71.75 167.648438 C 72.476562 168.375 73.496094 168.828125 74.597656 168.828125 C 75.71875 168.828125 76.722656 168.375 77.449219 167.648438 C 78.175781 166.921875 78.625 165.90625 78.625 164.800781 C 78.625 163.679688 78.175781 162.679688 77.449219 161.949219 C 76.722656 161.222656 75.703125 160.773438 74.597656 160.773438 C 74.453125 160.773438 74.292969 160.789062 74.148438 160.800781 C 73.292969 159.667969 72.359375 158.59375 71.34375 157.589844 C 68.132812 154.378906 64.191406 151.863281 59.789062 150.335938 C 58.449219 149.871094 57.476562 148.957031 56.953125 147.632812 C 56.5625 146.660156 55.980469 145.773438 55.238281 145.046875 C 53.871094 143.636719 51.953125 142.777344 49.816406 142.777344 C 47.679688 142.777344 45.761719 143.636719 44.367188 145.03125 C 43.640625 145.757812 43.042969 146.644531 42.652344 147.617188 C 42.128906 148.925781 41.152344 149.859375 39.816406 150.324219 C 35.425781 151.847656 31.488281 154.347656 28.261719 157.574219 C 25.046875 160.789062 22.535156 164.726562 21.007812 169.132812 C 20.542969 170.46875 19.625 171.441406 18.304688 171.964844 C 17.332031 172.359375 16.445312 172.941406 15.714844 173.679688 C 14.335938 175.0625 13.476562 176.980469 13.476562 179.117188 C 13.476562 181.253906 14.335938 183.171875 15.730469 184.566406 C 16.457031 185.292969 17.34375 185.890625 18.320312 186.28125 C 19.625 186.804688 20.558594 187.78125 21.023438 189.117188 C 22.546875 193.507812 25.046875 197.445312 28.273438 200.671875 C 31.488281 203.886719 35.425781 206.398438 39.832031 207.925781 C 41.167969 208.390625 42.140625 209.308594 42.664062 210.628906 C 43.058594 211.605469 43.640625 212.492188 44.378906 213.21875 C 45.777344 214.613281 47.710938 215.46875 49.832031 215.46875 C 51.96875 215.46875 53.886719 214.613281 55.28125 213.21875 C 56.007812 212.492188 56.605469 211.605469 56.996094 210.628906 C 57.519531 209.320312 58.496094 208.390625 59.832031 207.925781 C 64.222656 206.398438 68.160156 203.898438 71.386719 200.671875 C 72.390625 199.671875 73.335938 198.59375 74.191406 197.460938 C 74.335938 197.476562 74.496094 197.488281 74.644531 197.488281 C 75.761719 197.488281 76.765625 197.039062 77.492188 196.3125 C 78.21875 195.585938 78.667969 194.566406 78.667969 193.464844 C 78.667969 192.34375 78.21875 191.339844 77.492188 190.613281 C 76.765625 189.886719 75.746094 189.4375 74.644531 189.4375 C 73.523438 189.4375 72.519531 189.886719 71.792969 190.613281 C 71.066406 191.339844 70.617188 192.359375 70.617188 193.464844 C 70.617188 194.175781 70.804688 194.84375 71.125 195.425781 C 70.414062 196.371094 69.628906 197.257812 68.800781 198.085938 C 66.519531 200.367188 63.84375 202.226562 60.863281 203.566406 C 58.988281 204.410156 56.894531 203.988281 55.484375 202.488281 L 55.3125 202.316406 C 53.914062 200.921875 51.984375 200.0625 49.859375 200.0625 C 47.722656 200.0625 45.804688 200.921875 44.410156 202.316406 L 44.234375 202.503906 C 42.824219 204 40.730469 204.421875 38.855469 203.582031 C 35.878906 202.242188 33.203125 200.367188 30.921875 198.101562 C 28.636719 195.820312 26.777344 193.144531 25.441406 190.164062 C 24.597656 188.289062 25.019531 186.195312 26.515625 184.785156 L 26.691406 184.613281 C 26.867188 184.4375 27.039062 184.25 27.183594 184.058594 C 28.8125 182.082031 31.035156 181.035156 33.59375 181.035156 C 35.253906 181.035156 36.910156 181.035156 38.550781 181.035156 C 40.992188 181.035156 43.085938 181.964844 44.730469 183.78125 C 45.992188 185.179688 47.824219 186.066406 49.847656 186.066406 C 53.652344 186.066406 56.75 182.984375 56.75 179.160156 C 56.75 175.339844 53.667969 172.257812 49.847656 172.257812 C 47.8125 172.257812 45.980469 173.128906 44.730469 174.539062 C 43.101562 176.355469 40.992188 177.285156 38.550781 177.285156 C 36.894531 177.285156 35.238281 177.285156 33.59375 177.285156 C 31.023438 177.285156 28.8125 176.238281 27.183594 174.261719 C 27.023438 174.074219 26.867188 173.882812 26.691406 173.710938 L 26.515625 173.535156 C 25.019531 172.125 24.597656 170.03125 25.441406 168.15625 C 26.777344 165.179688 28.652344 162.503906 30.921875 160.222656 C 33.203125 157.9375 35.878906 156.078125 38.855469 154.742188 C 40.730469 153.898438 42.824219 154.320312 44.234375 155.816406 L 44.410156 155.992188 C 45.761719 157.34375 47.679688 158.199219 49.816406 158.199219 Z M 35.820312 190.6875 C 35.46875 190.265625 35.324219 189.757812 35.425781 189.203125 C 35.527344 188.652344 35.832031 188.230469 36.3125 187.953125 L 36.34375 187.941406 C 37.113281 187.488281 38.085938 187.664062 38.652344 188.363281 C 38.945312 188.710938 39.25 189.042969 39.570312 189.378906 C 42.1875 191.996094 45.820312 193.625 49.816406 193.625 C 53.8125 193.625 57.433594 191.996094 60.0625 189.378906 L 60.339844 189.089844 C 60.078125 188.550781 59.917969 187.941406 59.917969 187.300781 C 59.917969 186.179688 60.371094 185.179688 61.097656 184.453125 C 61.824219 183.726562 62.839844 183.273438 63.945312 183.273438 C 65.0625 183.273438 66.066406 183.726562 66.792969 184.453125 C 67.519531 185.179688 67.972656 186.195312 67.972656 187.300781 C 67.972656 188.417969 67.519531 189.421875 66.792969 190.148438 C 66.066406 190.875 65.050781 191.328125 63.945312 191.328125 C 63.726562 191.328125 63.523438 191.3125 63.304688 191.285156 C 63.085938 191.515625 62.871094 191.75 62.636719 191.980469 C 59.382812 195.25 54.832031 197.285156 49.816406 197.285156 C 44.800781 197.285156 40.253906 195.25 36.96875 191.964844 C 36.558594 191.558594 36.183594 191.136719 35.820312 190.6875 Z M 38.652344 169.886719 C 38.085938 170.570312 37.113281 170.746094 36.34375 170.308594 L 36.3125 170.292969 C 35.832031 170.019531 35.527344 169.582031 35.425781 169.042969 C 35.324219 168.492188 35.457031 167.984375 35.820312 167.5625 C 36.183594 167.125 36.574219 166.691406 36.980469 166.296875 C 40.253906 162.984375 44.800781 160.949219 49.816406 160.949219 C 54.832031 160.949219 59.382812 162.984375 62.664062 166.269531 C 62.898438 166.5 63.117188 166.734375 63.335938 166.964844 C 63.539062 166.9375 63.757812 166.921875 63.972656 166.921875 C 65.09375 166.921875 66.097656 167.371094 66.824219 168.097656 C 67.550781 168.828125 68 169.84375 68 170.949219 C 68 172.066406 67.550781 173.070312 66.824219 173.796875 C 66.097656 174.523438 65.078125 174.976562 63.972656 174.976562 C 62.855469 174.976562 61.851562 174.523438 61.125 173.796875 C 60.398438 173.070312 59.949219 172.054688 59.949219 170.949219 C 59.949219 170.308594 60.09375 169.699219 60.371094 169.160156 L 60.09375 168.871094 C 57.476562 166.253906 53.84375 164.625 49.847656 164.625 C 45.847656 164.625 42.230469 166.253906 39.597656 168.871094 C 39.25 169.191406 38.945312 169.539062 38.652344 169.886719 Z M 45.789062 207.738281 C 45.789062 206.617188 46.242188 205.613281 46.96875 204.886719 C 47.695312 204.160156 48.710938 203.710938 49.816406 203.710938 C 50.9375 203.710938 51.9375 204.160156 52.664062 204.886719 C 53.390625 205.613281 53.84375 206.632812 53.84375 207.738281 C 53.84375 208.855469 53.390625 209.859375 52.664062 210.585938 C 51.9375 211.3125 50.921875 211.765625 49.816406 211.765625 C 48.699219 211.765625 47.695312 211.3125 46.96875 210.585938 C 46.242188 209.859375 45.789062 208.855469 45.789062 207.738281 Z M 52.664062 147.632812 C 53.390625 148.359375 53.84375 149.378906 53.84375 150.484375 C 53.84375 151.601562 53.390625 152.605469 52.664062 153.332031 C 51.9375 154.058594 50.921875 154.507812 49.816406 154.507812 C 48.699219 154.507812 47.695312 154.058594 46.96875 153.332031 C 46.242188 152.605469 45.789062 151.585938 45.789062 150.484375 C 45.789062 149.363281 46.242188 148.359375 46.96875 147.632812 C 47.695312 146.90625 48.710938 146.457031 49.816406 146.457031 C 50.9375 146.457031 51.9375 146.90625 52.664062 147.632812 Z M 18.332031 176.269531 C 19.058594 175.542969 20.078125 175.089844 21.183594 175.089844 C 22.300781 175.089844 23.304688 175.542969 24.03125 176.269531 C 24.757812 176.996094 25.207031 178.011719 25.207031 179.117188 C 25.207031 180.238281 24.757812 181.238281 24.03125 181.964844 C 23.304688 182.691406 22.285156 183.144531 21.183594 183.144531 C 20.0625 183.144531 19.058594 182.691406 18.332031 181.964844 C 17.605469 181.238281 17.15625 180.222656 17.15625 179.117188 C 17.15625 177.996094 17.605469 176.996094 18.332031 176.269531 Z M 18.332031 176.269531 " fill-opacity="1" fill-rule="evenodd"/></g></svg>