<svg xmlns="http://www.w3.org/2000/svg" xmlns:xlink="http://www.w3.org/1999/xlink" width="400" zoomAndPan="magnify" viewBox="0 0 300 112.499997" height="150" preserveAspectRatio="xMidYMid meet" version="1.0"><defs><g/><clipPath id="dbe2d84f39"><path d="M 63.28125 35.644531 L 95.386719 35.644531 L 95.386719 71.480469 L 63.28125 71.480469 Z M 63.28125 35.644531 " clip-rule="nonzero"/></clipPath></defs><g fill="#001f20" fill-opacity="1"><g transform="translate(104.432124, 60.698359)"><g><path d="M 3.421875 -8.390625 L 5.0625 -8.546875 C 5.0625 -8.867188 5.03125 -9.207031 4.96875 -9.5625 C 4.914062 -9.925781 4.804688 -10.265625 4.640625 -10.578125 C 4.472656 -10.878906 4.238281 -11.125 3.9375 -11.3125 C 3.632812 -11.507812 3.226562 -11.601562 2.71875 -11.59375 C 2.320312 -11.582031 1.984375 -11.492188 1.703125 -11.328125 C 1.421875 -11.171875 1.191406 -10.96875 1.015625 -10.71875 C 0.835938 -10.457031 0.707031 -10.164062 0.625 -9.84375 C 0.550781 -9.53125 0.515625 -9.21875 0.515625 -8.90625 C 0.515625 -8.59375 0.5625 -8.285156 0.65625 -7.984375 C 0.820312 -7.390625 1.097656 -6.796875 1.484375 -6.203125 C 1.671875 -5.910156 1.851562 -5.632812 2.03125 -5.375 C 2.207031 -5.113281 2.378906 -4.863281 2.546875 -4.625 C 2.628906 -4.507812 2.703125 -4.394531 2.765625 -4.28125 C 2.835938 -4.164062 2.910156 -4.050781 2.984375 -3.9375 C 3.109375 -3.71875 3.210938 -3.5 3.296875 -3.28125 C 3.378906 -3.070312 3.421875 -2.875 3.421875 -2.6875 C 3.421875 -2.320312 3.367188 -2.019531 3.265625 -1.78125 C 3.160156 -1.539062 2.984375 -1.421875 2.734375 -1.421875 C 2.554688 -1.421875 2.414062 -1.476562 2.3125 -1.59375 C 2.207031 -1.707031 2.128906 -1.859375 2.078125 -2.046875 C 2.015625 -2.222656 1.972656 -2.425781 1.953125 -2.65625 C 1.941406 -2.894531 1.9375 -3.132812 1.9375 -3.375 L 0.28125 -3.21875 C 0.28125 -2.789062 0.304688 -2.375 0.359375 -1.96875 C 0.421875 -1.570312 0.535156 -1.21875 0.703125 -0.90625 C 0.878906 -0.59375 1.125 -0.34375 1.4375 -0.15625 C 1.757812 0.03125 2.191406 0.125 2.734375 0.125 C 3.191406 0.125 3.566406 0.046875 3.859375 -0.109375 C 4.160156 -0.273438 4.398438 -0.488281 4.578125 -0.75 C 4.753906 -1.019531 4.878906 -1.328125 4.953125 -1.671875 C 5.023438 -2.015625 5.0625 -2.378906 5.0625 -2.765625 C 5.0625 -3.078125 5.015625 -3.378906 4.921875 -3.671875 C 4.828125 -3.960938 4.707031 -4.253906 4.5625 -4.546875 C 4.414062 -4.835938 4.25 -5.128906 4.0625 -5.421875 C 3.882812 -5.710938 3.695312 -6.003906 3.5 -6.296875 C 3.332031 -6.535156 3.171875 -6.769531 3.015625 -7 C 2.859375 -7.226562 2.71875 -7.453125 2.59375 -7.671875 C 2.46875 -7.890625 2.363281 -8.097656 2.28125 -8.296875 C 2.207031 -8.503906 2.171875 -8.707031 2.171875 -8.90625 C 2.171875 -9.238281 2.210938 -9.507812 2.296875 -9.71875 C 2.378906 -9.925781 2.53125 -10.035156 2.75 -10.046875 C 2.882812 -10.046875 2.992188 -9.992188 3.078125 -9.890625 C 3.171875 -9.796875 3.242188 -9.671875 3.296875 -9.515625 C 3.347656 -9.347656 3.378906 -9.164062 3.390625 -8.96875 C 3.410156 -8.769531 3.421875 -8.578125 3.421875 -8.390625 Z M 3.421875 -8.390625 "/></g></g></g><g fill="#001f20" fill-opacity="1"><g transform="translate(114.347796, 60.698359)"><g><path d="M 0.625 -11.46875 L 0.625 0 L 2.3125 0 L 2.3125 -11.46875 Z M 0.625 -11.46875 "/></g></g></g><g fill="#001f20" fill-opacity="1"><g transform="translate(121.847496, 60.698359)"><g><path d="M 0.625 -11.46875 L 0.625 0 L 4.53125 0 L 4.53125 -1.5625 L 2.3125 -1.5625 L 2.3125 -11.46875 Z M 0.625 -11.46875 "/></g></g></g><g fill="#001f20" fill-opacity="1"><g transform="translate(131.014998, 60.698359)"><g><path d="M 0.625 -11.46875 L 0.625 0 L 4.46875 0 L 4.46875 -1.734375 L 2.3125 -1.734375 L 2.3125 -4.875 L 3.875 -4.875 L 3.875 -6.71875 L 2.3125 -6.71875 L 2.3125 -9.734375 L 4.46875 -9.734375 L 4.46875 -11.46875 Z M 0.625 -11.46875 "/></g></g></g><g fill="#001f20" fill-opacity="1"><g transform="translate(140.369541, 60.698359)"><g><path d="M 2.40625 -5.96875 L 4.03125 0 L 5.53125 0 L 5.53125 -11.46875 L 3.984375 -11.46875 L 3.984375 -4.953125 L 3.90625 -4.953125 L 3.765625 -5.484375 L 2.125 -11.46875 L 0.625 -11.46875 L 0.625 0 L 2.171875 0 L 2.171875 -6.5 L 2.265625 -6.5 Z M 2.40625 -5.96875 "/></g></g></g><g fill="#001f20" fill-opacity="1"><g transform="translate(151.095737, 60.698359)"><g><path d="M 0.03125 -9.734375 L 1.625 -9.734375 L 1.625 0 L 3.3125 0 L 3.3125 -9.734375 L 4.890625 -9.734375 L 4.890625 -11.46875 L 0.03125 -11.46875 Z M 0.03125 -9.734375 "/></g></g></g><g fill="#3b82f6" fill-opacity="1"><g transform="translate(160.59572, 60.698359)"><g><path d="M 3.046875 0 L 3.828125 -5.421875 L 3.90625 -6.09375 L 3.96875 -6.09375 L 4.0625 -5.421875 L 4.84375 0 L 6.15625 0 L 7.703125 -11.46875 L 6.140625 -11.46875 L 5.46875 -5.5 L 5.4375 -5.125 L 5.3125 -5.125 L 5.265625 -5.5 L 4.546875 -11.46875 L 3.34375 -11.46875 L 2.625 -5.5 L 2.578125 -5.125 L 2.453125 -5.125 L 2.421875 -5.5 L 1.75 -11.46875 L 0.1875 -11.46875 L 1.734375 0 Z M 3.046875 0 "/></g></g></g><g fill="#3b82f6" fill-opacity="1"><g transform="translate(173.052062, 60.698359)"><g><path d="M 0.625 -11.46875 L 0.625 0 L 2.3125 0 L 2.3125 -11.46875 Z M 0.625 -11.46875 "/></g></g></g><g fill="#3b82f6" fill-opacity="1"><g transform="translate(180.551762, 60.698359)"><g><path d="M 0.03125 -9.734375 L 1.625 -9.734375 L 1.625 0 L 3.3125 0 L 3.3125 -9.734375 L 4.890625 -9.734375 L 4.890625 -11.46875 L 0.03125 -11.46875 Z M 0.03125 -9.734375 "/></g></g></g><g fill="#3b82f6" fill-opacity="1"><g transform="translate(190.046588, 60.698359)"><g><path d="M 2.40625 -5.96875 L 4.03125 0 L 5.53125 0 L 5.53125 -11.46875 L 3.984375 -11.46875 L 3.984375 -4.953125 L 3.90625 -4.953125 L 3.765625 -5.484375 L 2.125 -11.46875 L 0.625 -11.46875 L 0.625 0 L 2.171875 0 L 2.171875 -6.5 L 2.265625 -6.5 Z M 2.40625 -5.96875 "/></g></g></g><g fill="#3b82f6" fill-opacity="1"><g transform="translate(200.772784, 60.698359)"><g><path d="M 0.625 -11.46875 L 0.625 0 L 4.46875 0 L 4.46875 -1.734375 L 2.3125 -1.734375 L 2.3125 -4.875 L 3.875 -4.875 L 3.875 -6.71875 L 2.3125 -6.71875 L 2.3125 -9.734375 L 4.46875 -9.734375 L 4.46875 -11.46875 Z M 0.625 -11.46875 "/></g></g></g><g fill="#3b82f6" fill-opacity="1"><g transform="translate(210.12733, 60.698359)"><g><path d="M 3.421875 -8.390625 L 5.0625 -8.546875 C 5.0625 -8.867188 5.03125 -9.207031 4.96875 -9.5625 C 4.914062 -9.925781 4.804688 -10.265625 4.640625 -10.578125 C 4.472656 -10.878906 4.238281 -11.125 3.9375 -11.3125 C 3.632812 -11.507812 3.226562 -11.601562 2.71875 -11.59375 C 2.320312 -11.582031 1.984375 -11.492188 1.703125 -11.328125 C 1.421875 -11.171875 1.191406 -10.96875 1.015625 -10.71875 C 0.835938 -10.457031 0.707031 -10.164062 0.625 -9.84375 C 0.550781 -9.53125 0.515625 -9.21875 0.515625 -8.90625 C 0.515625 -8.59375 0.5625 -8.285156 0.65625 -7.984375 C 0.820312 -7.390625 1.097656 -6.796875 1.484375 -6.203125 C 1.671875 -5.910156 1.851562 -5.632812 2.03125 -5.375 C 2.207031 -5.113281 2.378906 -4.863281 2.546875 -4.625 C 2.628906 -4.507812 2.703125 -4.394531 2.765625 -4.28125 C 2.835938 -4.164062 2.910156 -4.050781 2.984375 -3.9375 C 3.109375 -3.71875 3.210938 -3.5 3.296875 -3.28125 C 3.378906 -3.070312 3.421875 -2.875 3.421875 -2.6875 C 3.421875 -2.320312 3.367188 -2.019531 3.265625 -1.78125 C 3.160156 -1.539062 2.984375 -1.421875 2.734375 -1.421875 C 2.554688 -1.421875 2.414062 -1.476562 2.3125 -1.59375 C 2.207031 -1.707031 2.128906 -1.859375 2.078125 -2.046875 C 2.015625 -2.222656 1.972656 -2.425781 1.953125 -2.65625 C 1.941406 -2.894531 1.9375 -3.132812 1.9375 -3.375 L 0.28125 -3.21875 C 0.28125 -2.789062 0.304688 -2.375 0.359375 -1.96875 C 0.421875 -1.570312 0.535156 -1.21875 0.703125 -0.90625 C 0.878906 -0.59375 1.125 -0.34375 1.4375 -0.15625 C 1.757812 0.03125 2.191406 0.125 2.734375 0.125 C 3.191406 0.125 3.566406 0.046875 3.859375 -0.109375 C 4.160156 -0.273438 4.398438 -0.488281 4.578125 -0.75 C 4.753906 -1.019531 4.878906 -1.328125 4.953125 -1.671875 C 5.023438 -2.015625 5.0625 -2.378906 5.0625 -2.765625 C 5.0625 -3.078125 5.015625 -3.378906 4.921875 -3.671875 C 4.828125 -3.960938 4.707031 -4.253906 4.5625 -4.546875 C 4.414062 -4.835938 4.25 -5.128906 4.0625 -5.421875 C 3.882812 -5.710938 3.695312 -6.003906 3.5 -6.296875 C 3.332031 -6.535156 3.171875 -6.769531 3.015625 -7 C 2.859375 -7.226562 2.71875 -7.453125 2.59375 -7.671875 C 2.46875 -7.890625 2.363281 -8.097656 2.28125 -8.296875 C 2.207031 -8.503906 2.171875 -8.707031 2.171875 -8.90625 C 2.171875 -9.238281 2.210938 -9.507812 2.296875 -9.71875 C 2.378906 -9.925781 2.53125 -10.035156 2.75 -10.046875 C 2.882812 -10.046875 2.992188 -9.992188 3.078125 -9.890625 C 3.171875 -9.796875 3.242188 -9.671875 3.296875 -9.515625 C 3.347656 -9.347656 3.378906 -9.164062 3.390625 -8.96875 C 3.410156 -8.769531 3.421875 -8.578125 3.421875 -8.390625 Z M 3.421875 -8.390625 "/></g></g></g><g fill="#3b82f6" fill-opacity="1"><g transform="translate(220.042999, 60.698359)"><g><path d="M 3.421875 -8.390625 L 5.0625 -8.546875 C 5.0625 -8.867188 5.03125 -9.207031 4.96875 -9.5625 C 4.914062 -9.925781 4.804688 -10.265625 4.640625 -10.578125 C 4.472656 -10.878906 4.238281 -11.125 3.9375 -11.3125 C 3.632812 -11.507812 3.226562 -11.601562 2.71875 -11.59375 C 2.320312 -11.582031 1.984375 -11.492188 1.703125 -11.328125 C 1.421875 -11.171875 1.191406 -10.96875 1.015625 -10.71875 C 0.835938 -10.457031 0.707031 -10.164062 0.625 -9.84375 C 0.550781 -9.53125 0.515625 -9.21875 0.515625 -8.90625 C 0.515625 -8.59375 0.5625 -8.285156 0.65625 -7.984375 C 0.820312 -7.390625 1.097656 -6.796875 1.484375 -6.203125 C 1.671875 -5.910156 1.851562 -5.632812 2.03125 -5.375 C 2.207031 -5.113281 2.378906 -4.863281 2.546875 -4.625 C 2.628906 -4.507812 2.703125 -4.394531 2.765625 -4.28125 C 2.835938 -4.164062 2.910156 -4.050781 2.984375 -3.9375 C 3.109375 -3.71875 3.210938 -3.5 3.296875 -3.28125 C 3.378906 -3.070312 3.421875 -2.875 3.421875 -2.6875 C 3.421875 -2.320312 3.367188 -2.019531 3.265625 -1.78125 C 3.160156 -1.539062 2.984375 -1.421875 2.734375 -1.421875 C 2.554688 -1.421875 2.414062 -1.476562 2.3125 -1.59375 C 2.207031 -1.707031 2.128906 -1.859375 2.078125 -2.046875 C 2.015625 -2.222656 1.972656 -2.425781 1.953125 -2.65625 C 1.941406 -2.894531 1.9375 -3.132812 1.9375 -3.375 L 0.28125 -3.21875 C 0.28125 -2.789062 0.304688 -2.375 0.359375 -1.96875 C 0.421875 -1.570312 0.535156 -1.21875 0.703125 -0.90625 C 0.878906 -0.59375 1.125 -0.34375 1.4375 -0.15625 C 1.757812 0.03125 2.191406 0.125 2.734375 0.125 C 3.191406 0.125 3.566406 0.046875 3.859375 -0.109375 C 4.160156 -0.273438 4.398438 -0.488281 4.578125 -0.75 C 4.753906 -1.019531 4.878906 -1.328125 4.953125 -1.671875 C 5.023438 -2.015625 5.0625 -2.378906 5.0625 -2.765625 C 5.0625 -3.078125 5.015625 -3.378906 4.921875 -3.671875 C 4.828125 -3.960938 4.707031 -4.253906 4.5625 -4.546875 C 4.414062 -4.835938 4.25 -5.128906 4.0625 -5.421875 C 3.882812 -5.710938 3.695312 -6.003906 3.5 -6.296875 C 3.332031 -6.535156 3.171875 -6.769531 3.015625 -7 C 2.859375 -7.226562 2.71875 -7.453125 2.59375 -7.671875 C 2.46875 -7.890625 2.363281 -8.097656 2.28125 -8.296875 C 2.207031 -8.503906 2.171875 -8.707031 2.171875 -8.90625 C 2.171875 -9.238281 2.210938 -9.507812 2.296875 -9.71875 C 2.378906 -9.925781 2.53125 -10.035156 2.75 -10.046875 C 2.882812 -10.046875 2.992188 -9.992188 3.078125 -9.890625 C 3.171875 -9.796875 3.242188 -9.671875 3.296875 -9.515625 C 3.347656 -9.347656 3.378906 -9.164062 3.390625 -8.96875 C 3.410156 -8.769531 3.421875 -8.578125 3.421875 -8.390625 Z M 3.421875 -8.390625 "/></g></g></g><g clip-path="url(#dbe2d84f39)"><path fill="#3b82f6" d="M 81.15625 43.21875 C 82.203125 43.21875 83.148438 42.796875 83.832031 42.109375 L 83.917969 42.023438 C 84.609375 41.289062 85.640625 41.082031 86.558594 41.496094 C 88.023438 42.152344 89.339844 43.074219 90.460938 44.1875 C 90.867188 44.59375 91.25 45.039062 91.601562 45.496094 C 91.445312 45.78125 91.351562 46.109375 91.351562 46.457031 C 91.351562 47.007812 91.574219 47.5 91.929688 47.859375 C 92.289062 48.214844 92.789062 48.4375 93.328125 48.4375 C 93.878906 48.4375 94.371094 48.214844 94.730469 47.859375 C 95.085938 47.5 95.308594 47 95.308594 46.457031 C 95.308594 45.910156 95.085938 45.417969 94.730469 45.058594 C 94.371094 44.703125 93.871094 44.480469 93.328125 44.480469 C 93.257812 44.480469 93.179688 44.488281 93.109375 44.496094 C 92.6875 43.9375 92.230469 43.410156 91.730469 42.917969 C 90.152344 41.339844 88.21875 40.101562 86.054688 39.355469 C 85.394531 39.125 84.917969 38.675781 84.660156 38.023438 C 84.46875 37.546875 84.183594 37.109375 83.816406 36.753906 C 83.148438 36.0625 82.203125 35.640625 81.15625 35.640625 C 80.105469 35.640625 79.164062 36.0625 78.476562 36.746094 C 78.121094 37.105469 77.828125 37.539062 77.632812 38.019531 C 77.375 38.660156 76.898438 39.117188 76.242188 39.347656 C 74.085938 40.097656 72.148438 41.324219 70.5625 42.910156 C 68.984375 44.488281 67.75 46.421875 67 48.585938 C 66.773438 49.242188 66.324219 49.722656 65.671875 49.980469 C 65.195312 50.171875 64.757812 50.457031 64.402344 50.820312 C 63.722656 51.5 63.300781 52.441406 63.300781 53.492188 C 63.300781 54.542969 63.722656 55.484375 64.410156 56.171875 C 64.765625 56.527344 65.203125 56.820312 65.679688 57.011719 C 66.324219 57.269531 66.78125 57.75 67.007812 58.40625 C 67.757812 60.5625 68.984375 62.496094 70.570312 64.082031 C 72.148438 65.660156 74.085938 66.898438 76.25 67.644531 C 76.90625 67.875 77.382812 68.324219 77.640625 68.972656 C 77.832031 69.453125 78.121094 69.886719 78.484375 70.246094 C 79.167969 70.929688 80.117188 71.351562 81.160156 71.351562 C 82.210938 71.351562 83.152344 70.929688 83.839844 70.246094 C 84.195312 69.886719 84.488281 69.453125 84.683594 68.972656 C 84.9375 68.332031 85.417969 67.875 86.074219 67.644531 C 88.230469 66.898438 90.167969 65.667969 91.75 64.082031 C 92.246094 63.589844 92.707031 63.0625 93.128906 62.503906 C 93.203125 62.511719 93.28125 62.519531 93.351562 62.519531 C 93.902344 62.519531 94.394531 62.296875 94.75 61.941406 C 95.109375 61.582031 95.328125 61.082031 95.328125 60.539062 C 95.328125 59.992188 95.109375 59.5 94.75 59.140625 C 94.394531 58.785156 93.894531 58.5625 93.351562 58.5625 C 92.800781 58.5625 92.308594 58.785156 91.953125 59.140625 C 91.59375 59.5 91.375 60 91.375 60.539062 C 91.375 60.890625 91.464844 61.21875 91.625 61.503906 C 91.273438 61.96875 90.886719 62.40625 90.480469 62.8125 C 89.359375 63.933594 88.046875 64.847656 86.582031 65.503906 C 85.660156 65.917969 84.632812 65.710938 83.941406 64.976562 L 83.855469 64.890625 C 83.167969 64.203125 82.21875 63.78125 81.175781 63.78125 C 80.125 63.78125 79.183594 64.203125 78.496094 64.890625 L 78.414062 64.984375 C 77.71875 65.71875 76.691406 65.925781 75.769531 65.511719 C 74.304688 64.855469 72.992188 63.933594 71.871094 62.820312 C 70.75 61.699219 69.835938 60.382812 69.179688 58.921875 C 68.765625 58 68.972656 56.96875 69.707031 56.277344 L 69.792969 56.191406 C 69.878906 56.105469 69.964844 56.011719 70.035156 55.921875 C 70.835938 54.949219 71.929688 54.433594 73.183594 54.433594 C 74 54.433594 74.8125 54.433594 75.621094 54.433594 C 76.820312 54.433594 77.847656 54.890625 78.65625 55.785156 C 79.277344 56.46875 80.175781 56.90625 81.167969 56.90625 C 83.039062 56.90625 84.5625 55.390625 84.5625 53.515625 C 84.5625 51.636719 83.046875 50.121094 81.167969 50.121094 C 80.167969 50.121094 79.269531 50.550781 78.65625 51.242188 C 77.855469 52.136719 76.820312 52.59375 75.621094 52.59375 C 74.804688 52.59375 73.992188 52.59375 73.183594 52.59375 C 71.921875 52.59375 70.835938 52.078125 70.035156 51.109375 C 69.957031 51.015625 69.878906 50.921875 69.792969 50.835938 L 69.707031 50.75 C 68.972656 50.058594 68.765625 49.03125 69.179688 48.109375 C 69.835938 46.644531 70.757812 45.332031 71.871094 44.210938 C 72.992188 43.089844 74.304688 42.175781 75.769531 41.515625 C 76.691406 41.101562 77.71875 41.308594 78.414062 42.046875 L 78.496094 42.132812 C 79.164062 42.796875 80.105469 43.21875 81.15625 43.21875 Z M 74.277344 59.175781 C 74.105469 58.96875 74.035156 58.71875 74.085938 58.449219 C 74.136719 58.175781 74.285156 57.96875 74.519531 57.835938 L 74.535156 57.828125 C 74.914062 57.605469 75.390625 57.691406 75.671875 58.035156 C 75.8125 58.207031 75.964844 58.371094 76.121094 58.535156 C 77.40625 59.820312 79.191406 60.621094 81.15625 60.621094 C 83.117188 60.621094 84.894531 59.820312 86.1875 58.535156 L 86.324219 58.390625 C 86.195312 58.128906 86.117188 57.828125 86.117188 57.511719 C 86.117188 56.964844 86.339844 56.46875 86.695312 56.113281 C 87.054688 55.757812 87.554688 55.535156 88.09375 55.535156 C 88.644531 55.535156 89.136719 55.757812 89.496094 56.113281 C 89.851562 56.46875 90.074219 56.96875 90.074219 57.511719 C 90.074219 58.0625 89.851562 58.554688 89.496094 58.914062 C 89.136719 59.269531 88.636719 59.492188 88.09375 59.492188 C 87.988281 59.492188 87.886719 59.484375 87.78125 59.46875 C 87.675781 59.585938 87.566406 59.699219 87.453125 59.8125 C 85.851562 61.417969 83.617188 62.417969 81.15625 62.417969 C 78.691406 62.417969 76.457031 61.417969 74.839844 59.804688 C 74.640625 59.605469 74.457031 59.398438 74.277344 59.175781 Z M 75.671875 48.957031 C 75.390625 49.292969 74.914062 49.378906 74.535156 49.164062 L 74.519531 49.15625 C 74.285156 49.023438 74.136719 48.808594 74.085938 48.542969 C 74.035156 48.273438 74.097656 48.023438 74.277344 47.816406 C 74.457031 47.601562 74.648438 47.386719 74.847656 47.195312 C 76.457031 45.566406 78.691406 44.566406 81.15625 44.566406 C 83.617188 44.566406 85.851562 45.566406 87.46875 47.179688 C 87.582031 47.292969 87.6875 47.410156 87.796875 47.523438 C 87.894531 47.507812 88.003906 47.5 88.109375 47.5 C 88.660156 47.5 89.152344 47.722656 89.507812 48.078125 C 89.867188 48.4375 90.089844 48.9375 90.089844 49.480469 C 90.089844 50.03125 89.867188 50.523438 89.507812 50.878906 C 89.152344 51.234375 88.652344 51.457031 88.109375 51.457031 C 87.558594 51.457031 87.066406 51.234375 86.710938 50.878906 C 86.351562 50.523438 86.132812 50.023438 86.132812 49.480469 C 86.132812 49.164062 86.203125 48.867188 86.339844 48.601562 L 86.203125 48.457031 C 84.917969 47.171875 83.132812 46.375 81.167969 46.375 C 79.203125 46.375 77.425781 47.171875 76.132812 48.457031 C 75.964844 48.617188 75.8125 48.785156 75.671875 48.957031 Z M 79.175781 67.554688 C 79.175781 67.003906 79.398438 66.511719 79.753906 66.152344 C 80.113281 65.796875 80.613281 65.574219 81.15625 65.574219 C 81.703125 65.574219 82.195312 65.796875 82.554688 66.152344 C 82.910156 66.511719 83.132812 67.011719 83.132812 67.554688 C 83.132812 68.101562 82.910156 68.597656 82.554688 68.953125 C 82.195312 69.308594 81.695312 69.53125 81.15625 69.53125 C 80.605469 69.53125 80.113281 69.308594 79.753906 68.953125 C 79.398438 68.597656 79.175781 68.101562 79.175781 67.554688 Z M 82.554688 38.023438 C 82.910156 38.382812 83.132812 38.882812 83.132812 39.425781 C 83.132812 39.976562 82.910156 40.46875 82.554688 40.824219 C 82.195312 41.179688 81.695312 41.402344 81.15625 41.402344 C 80.605469 41.402344 80.113281 41.179688 79.753906 40.824219 C 79.398438 40.46875 79.175781 39.96875 79.175781 39.425781 C 79.175781 38.875 79.398438 38.382812 79.753906 38.023438 C 80.113281 37.667969 80.613281 37.445312 81.15625 37.445312 C 81.703125 37.445312 82.195312 37.667969 82.554688 38.023438 Z M 65.6875 52.09375 C 66.042969 51.734375 66.542969 51.515625 67.085938 51.515625 C 67.636719 51.515625 68.128906 51.734375 68.484375 52.09375 C 68.84375 52.449219 69.066406 52.949219 69.066406 53.492188 C 69.066406 54.042969 68.84375 54.535156 68.484375 54.890625 C 68.128906 55.25 67.628906 55.472656 67.085938 55.472656 C 66.535156 55.472656 66.042969 55.25 65.6875 54.890625 C 65.328125 54.535156 65.109375 54.035156 65.109375 53.492188 C 65.109375 52.941406 65.328125 52.449219 65.6875 52.09375 Z M 65.6875 52.09375 " fill-opacity="1" fill-rule="evenodd"/></g></svg>